# xmcd
#
# Track frame offsets:
#	183
#	13103
#	26683
#	39338
#	50678
#	61015
#	73888
#	87998
#	102668
#	118143
#	127378
#	139900
#	149830
#	156778
#	176793
#	188575
#	200605
#	211095
#
# Disc length: 2996 seconds
#
# Revision: 1
# Processed by: cddbd v1.5.1PL2 Copyright (c) Steve Scherf et al.
# Submitted via: audiograbber 1.83.01
#
DISCID=1b0bb212
DTITLE=Various Artist - A very special country collection CD2
DYEAR=1996
DGENRE=Country
TTITLE0=Lynn Anderson - I never promissed you a rose garden
TTITLE1=Tammy Wynette - Stand by your man
TTITLE2=Charlie Rich - Behing closed doors
TTITLE3=Faron Young - Wine me up
TTITLE4=Merle Haggard - Ida Red
TTITLE5=The Osmonds - Where does an angel go when she cries
TTITLE6=Mel Tillis - Ruby don't take your guns to town
TTITLE7=George Jones - I always get lucky with you
TTITLE8=Ed Bruce - Texas when I die
TTITLE9=Frankia Laine - Rawhide
TTITLE10=Dottie West - Here comes my baby
TTITLE11=Faron Young - Hello walls
TTITLE12=Mickey Gilley - Put your dreams away
TTITLE13=The Nitty Gritty Dirt Band - Cadillac ranch
TTITLE14=Lee Greenwood - I O U
TTITLE15=Billie Jo Spears - Look what they've done to my song ma
TTITLE16=Boxcar Willie - Wabash Cannonball
TTITLE17=Patsy Cline - A Church, A Courtroom and then goodby
EXTD=
EXTT0=
EXTT1=
EXTT2=
EXTT3=
EXTT4=
EXTT5=
EXTT6=
EXTT7=
EXTT8=
EXTT9=
EXTT10=
EXTT11=
EXTT12=
EXTT13=
EXTT14=
EXTT15=
EXTT16=
EXTT17=
PLAYORDER=
